<svg width="200" height="200" viewBox="0 0 200 200" xmlns="http://www.w3.org/2000/svg">
  <title>Kreis zu Spirale (3 Umdrehungen, Blau -> Rot, 3s)</title>
  <rect width="200" height="200" fill="#0f0f1e"/>
  <path d="M 100.0,100.0 L 100.2,100.02 L 100.4,100.06 L 100.58,100.14 L 100.76,100.25 L 100.92,100.38 L 101.07,100.54 L 101.19,100.73 L 101.29,100.94 L 101.37,101.17 L 101.41,101.41 L 101.43,101.67 L 101.41,101.94 L 101.36,102.22 L 101.27,102.49 L 101.15,102.77 L 100.99,103.04 L 100.79,103.31 L 100.56,103.56 L 100.3,103.79 L 100.0,104.0 L 99.67,104.19 L 99.31,104.35 L 98.93,104.47 L 98.52,104.57 L 98.09,104.62 L 97.64,104.63 L 97.18,104.6 L 96.71,104.53 L 96.23,104.41 L 95.76,104.24 L 95.29,104.03 L 94.82,103.76 L 94.37,103.45 L 93.94,103.09 L 93.53,102.68 L 93.15,102.22 L 92.8,101.73 L 92.49,101.19 L 92.22,100.61 L 92.0,100.0 L 91.83,99.36 L 91.7,98.69 L 91.64,97.99 L 91.63,97.28 L 91.69,96.56 L 91.8,95.82 L 91.99,95.09 L 92.23,94.36 L 92.55,93.64 L 92.93,92.93 L 93.38,92.24 L 93.89,91.59 L 94.46,90.96 L 95.1,90.38 L 95.79,89.84 L 96.54,89.35 L 97.34,88.91 L 98.19,88.54 L 99.07,88.24 L 100.0,88.0 L 100.96,87.84 L 101.94,87.75 L 102.94,87.75 L 103.96,87.83 L 104.97,87.99 L 105.99,88.24 L 107.0,88.57 L 107.99,89.0 L 108.96,89.51 L 109.9,90.1 L 110.8,90.78 L 111.65,91.54 L 112.45,92.37 L 113.19,93.28 L 113.86,94.26 L 114.46,95.3 L 114.97,96.4 L 115.41,97.56 L 115.75,98.76 L 116.0,100.0 L 116.15,101.27 L 116.2,102.57 L 116.14,103.88 L 115.98,105.19 L 115.71,106.51 L 115.33,107.81 L 114.84,109.09 L 114.24,110.35 L 113.54,111.56 L 112.73,112.73 L 111.82,113.84 L 110.82,114.89 L 109.72,115.86 L 108.54,116.75 L 107.27,117.55 L 105.93,118.26 L 104.53,118.86 L 103.07,119.36 L 101.55,119.74 L 100.0,120.0 L 98.42,120.14 L 96.81,120.15 L 95.19,120.03 L 93.57,119.78 L 91.96,119.4 L 90.38,118.89 L 88.82,118.25 L 87.3,117.47 L 85.84,116.58 L 84.44,115.56 L 83.12,114.42 L 81.88,113.17 L 80.73,111.81 L 79.69,110.35 L 78.75,108.8 L 77.94,107.17 L 77.25,105.46 L 76.69,103.69 L 76.27,101.87 L 76.0,100.0 L 75.87,98.1 L 75.9,96.18 L 76.08,94.26 L 76.41,92.34 L 76.9,90.43 L 77.55,88.56 L 78.34,86.73 L 79.29,84.95 L 80.38,83.24 L 81.62,81.62 L 82.98,80.08 L 84.48,78.64 L 86.1,77.32 L 87.83,76.12 L 89.67,75.06 L 91.59,74.13 L 93.6,73.36 L 95.68,72.74 L 97.82,72.29 L 100.0,72.0 L 102.21,71.89 L 104.44,71.95 L 106.68,72.19 L 108.9,72.61 L 111.1,73.21 L 113.26,73.98 L 115.36,74.93 L 117.4,76.05 L 119.35,77.34 L 121.21,78.79 L 122.96,80.39 L 124.59,82.13 L 126.09,84.01 L 127.44,86.02 L 128.64,88.14 L 129.67,90.36 L 130.53,92.67 L 131.21,95.06 L 131.7,97.51 L 132.0,100.0 L 132.1,102.53 L 132.0,105.07 L 131.7,107.61 L 131.19,110.14 L 130.49,112.63 L 129.58,115.07 L 128.48,117.45 L 127.18,119.75 L 125.7,121.95 L 124.04,124.04 L 122.21,126.01 L 120.22,127.83 L 118.08,129.5 L 115.8,131.01 L 113.39,132.34 L 110.88,133.48 L 108.26,134.42 L 105.57,135.16 L 102.81,135.69 L 100.0,136.0 L 97.16,136.09 L 94.31,135.95 L 91.46,135.59 L 88.63,135.0 L 85.84,134.18 L 83.11,133.15 L 80.46,131.89 L 77.9,130.42 L 75.45,128.74 L 73.13,126.87 L 70.95,124.81 L 68.93,122.57 L 67.09,120.17 L 65.43,117.61 L 63.97,114.92 L 62.72,112.11 L 61.69,109.2 L 60.89,106.19 L 60.32,103.12 L 60.0,100.0 L 59.92,96.85 L 60.1,93.68 L 60.52,90.52 L 61.2,87.39 L 62.12,84.31 L 63.29,81.3 L 64.7,78.37 L 66.34,75.55 L 68.22,72.85 L 70.3,70.3 L 72.59,67.91 L 75.08,65.7 L 77.74,63.68 L 80.57,61.86 L 83.54,60.27 L 86.65,58.91 L 89.87,57.8 L 93.18,56.94 L 96.56,56.34 L 100.0,56.0 L 103.47,55.94 L 106.95,56.15 L 110.41,56.63 L 113.84,57.39 L 117.22,58.43 L 120.52,59.73 L 123.72,61.29 L 126.8,63.11 L 129.74,65.17 L 132.53,67.47 L 135.13,70.0 L 137.54,72.73 L 139.73,75.65 L 141.7,78.75 L 143.42,82.01 L 144.89,85.41 L 146.09,88.93 L 147.01,92.55 L 147.65,96.25 L 148.0,100.0"
        fill="none" stroke="#0000FF" stroke-width="4"
        stroke-linecap="round" stroke-linejoin="round"
        stroke-dasharray="457.5" stroke-dashoffset="457.5">
    <animate attributeName="stroke-dashoffset" from="457.5" to="0"
             dur="3s" repeatCount="indefinite"/>
    <animate attributeName="stroke" values="#0000FF;#FF0000;#0000FF"
             dur="3s" repeatCount="indefinite"/>
  </path>
</svg>
